<?xml version="1.0" encoding="UTF-8"?><svg id="Layer_1" xmlns="http://www.w3.org/2000/svg" viewBox="0 0 781.94 171.22"><defs><style>.cls-1{fill:#ff5f00;}.cls-2{fill:#24272a;}</style></defs><g><rect class="cls-1" y="51.37" width="17.12" height="17.12"/><rect class="cls-1" x="17.12" y="34.24" width="17.12" height="17.12"/><rect class="cls-1" x="34.24" y="17.12" width="17.12" height="17.12"/><rect class="cls-1" x="51.37" width="17.12" height="17.12"/><rect class="cls-1" x="68.49" y="17.12" width="17.12" height="17.12"/><rect class="cls-1" x="85.61" y="34.24" width="17.12" height="17.12"/><rect class="cls-1" x="102.73" y="51.37" width="17.12" height="17.12"/><rect class="cls-1" y="154.1" width="17.12" height="17.12"/><rect class="cls-1" x="102.73" y="154.1" width="17.12" height="17.12"/><rect class="cls-1" x="68.49" y="154.1" width="17.12" height="17.12"/><rect class="cls-1" x="34.24" y="154.1" width="17.12" height="17.12"/><rect class="cls-1" x="85.61" y="136.97" width="17.12" height="17.12"/><rect class="cls-1" x="51.37" y="136.97" width="17.12" height="17.12"/><rect class="cls-1" x="17.12" y="136.97" width="17.12" height="17.12"/><rect class="cls-1" x="0" y="119.85" width="17.12" height="17.12"/><rect class="cls-1" x="102.73" y="119.85" width="17.12" height="17.12"/><rect class="cls-1" x="68.49" y="119.85" width="17.12" height="17.12"/><rect class="cls-1" x="34.24" y="119.85" width="17.12" height="17.12"/><rect class="cls-1" x="17.12" y="102.73" width="17.12" height="17.12"/><rect class="cls-1" x="85.61" y="102.73" width="17.12" height="17.12"/><rect class="cls-1" x="51.37" y="102.73" width="17.12" height="17.12"/><rect class="cls-1" y="85.61" width="17.12" height="17.12"/><rect class="cls-1" x="102.73" y="85.61" width="17.12" height="17.12"/><rect class="cls-1" x="68.49" y="85.61" width="17.12" height="17.12"/><rect class="cls-1" x="34.24" y="85.61" width="17.12" height="17.12"/><rect class="cls-1" x="85.61" y="68.49" width="17.12" height="17.12"/><rect class="cls-1" x="51.37" y="68.49" width="17.12" height="17.12"/><rect class="cls-1" x="17.12" y="68.49" width="17.12" height="17.12"/><rect class="cls-1" x="0" y="51.37" width="17.12" height="17.12"/><rect class="cls-1" x="102.73" y="51.37" width="17.12" height="17.12"/><rect class="cls-1" x="68.49" y="51.37" width="17.12" height="17.12"/><rect class="cls-1" x="34.24" y="51.37" width="17.12" height="17.12"/><rect class="cls-1" x="17.12" y="34.24" width="17.12" height="17.12"/><rect class="cls-1" x="85.61" y="34.24" width="17.12" height="17.12"/><rect class="cls-1" x="51.37" y="34.24" width="17.12" height="17.12"/><rect class="cls-1" x="68.49" y="17.12" width="17.12" height="17.12"/><rect class="cls-1" x="34.24" y="17.12" width="17.12" height="17.12"/></g><g><path class="cls-2" d="M227.69,109.76c-13.37,0-24.25-10.01-24.25-24.19s10.88-24.12,24.25-24.12,24.12,9.94,24.12,24.12-10.75,24.19-24.12,24.19Zm0-10.48c7.52,0,12.43-5.44,12.43-13.71s-4.9-13.71-12.43-13.71-12.5,5.31-12.5,13.71,4.84,13.71,12.5,13.71Z"/><path class="cls-2" d="M305.26,62.13c11.56,0,17.33,6.65,17.33,14.85,0,5.91-3.23,11.49-10.48,13.64l10.88,18.68h-12.97l-9.81-17.8h-2.75v17.8h-11.49V62.13h19.28Zm-.67,9.54h-7.12v11.69h7.12c4.3,0,6.32-2.22,6.32-5.91,0-3.49-2.02-5.78-6.32-5.78Z"/><path class="cls-2" d="M399.55,85.71c0,13.97-9.67,23.58-24.72,23.58h-17.67V62.13h17.67c15.05,0,24.72,9.54,24.72,23.58Zm-25.46,13.64c8.67,0,13.77-4.97,13.77-13.64s-5.11-13.77-13.77-13.77h-5.44v27.41h5.44Z"/><path class="cls-2" d="M462.6,71.33h-17.4v9.54h15.38v8.87h-15.38v10.35h17.4v9.2h-28.89V62.13h28.89v9.21Z"/><path class="cls-2" d="M540.39,62.13v47.16h-11.49l-19.21-29.09v29.09h-11.49V62.13h11.49l19.21,29.23v-29.23h11.49Z"/><path class="cls-2" d="M619.4,62.13h11.49v47.16h-11.49V62.13Z"/><path class="cls-2" d="M709.44,62.13v47.16h-11.49l-19.21-29.09v29.09h-11.49V62.13h11.49l19.21,29.23v-29.23h11.49Z"/><path class="cls-2" d="M769.77,62.13h12.16l-16.73,47.16h-14.38l-16.73-47.16h12.23l11.69,35.61,11.76-35.61Z"/></g></svg>