<svg id="Group_46" data-name="Group 46" xmlns="http://www.w3.org/2000/svg" width="45.872" height="72.086" viewBox="0 0 45.872 72.086">
  <rect id="Rectangle_119" data-name="Rectangle 119" width="6.553" height="6.553" transform="translate(0 19.661)" fill="#fff"/>
  <rect id="Rectangle_120" data-name="Rectangle 120" width="6.553" height="6.553" transform="translate(6.554 13.107)" fill="#fff"/>
  <rect id="Rectangle_121" data-name="Rectangle 121" width="6.553" height="6.553" transform="translate(13.107 6.554)" fill="#fff"/>
  <rect id="Rectangle_122" data-name="Rectangle 122" width="6.553" height="6.553" transform="translate(19.66 0)" fill="#fff"/>
  <rect id="Rectangle_123" data-name="Rectangle 123" width="6.553" height="6.553" transform="translate(26.214 6.554)" fill="#fff"/>
  <rect id="Rectangle_124" data-name="Rectangle 124" width="6.553" height="6.553" transform="translate(32.767 13.107)" fill="#fff"/>
  <rect id="Rectangle_125" data-name="Rectangle 125" width="6.553" height="6.553" transform="translate(39.319 19.661)" fill="#fff"/>
  <rect id="Rectangle_126" data-name="Rectangle 126" width="6.553" height="6.553" transform="translate(0 19.661)" fill="#fff"/>
  <rect id="Rectangle_127" data-name="Rectangle 127" width="6.553" height="6.553" transform="translate(39.319 19.661)" fill="#fff"/>
  <rect id="Rectangle_128" data-name="Rectangle 128" width="6.553" height="6.553" transform="translate(6.554 13.107)" fill="#fff"/>
  <rect id="Rectangle_129" data-name="Rectangle 129" width="6.553" height="6.553" transform="translate(32.767 13.107)" fill="#fff"/>
  <rect id="Rectangle_130" data-name="Rectangle 130" width="6.553" height="6.553" transform="translate(19.66 13.107)" fill="#fff"/>
  <rect id="Rectangle_131" data-name="Rectangle 131" width="6.553" height="6.553" transform="translate(19.66 26.214)" fill="#fff"/>
  <rect id="Rectangle_132" data-name="Rectangle 132" width="6.553" height="6.553" transform="translate(19.66 39.321)" fill="#fff"/>
  <rect id="Rectangle_133" data-name="Rectangle 133" width="6.553" height="6.553" transform="translate(19.66 52.426)" fill="#fff"/>
  <rect id="Rectangle_134" data-name="Rectangle 134" width="6.553" height="6.553" transform="translate(19.66 65.533)" fill="#fff"/>
</svg>
